<svg width="80" height="32" viewBox="0 0 80 32" fill="none" xmlns="http://www.w3.org/2000/svg">
<path d="M21.3333 27.6667C21.0678 27.6679 20.8131 27.5622 20.6266 27.3733L9.95993 16.7067C9.57 16.3162 9.57 15.6838 9.95993 15.2933L20.6266 4.62667C21.0206 4.25952 21.6346 4.27035 22.0154 4.65117C22.3962 5.03199 22.4071 5.64599 22.0399 6.04L12.0799 16L22.0399 25.96C22.4299 26.3504 22.4299 26.9829 22.0399 27.3733C21.8534 27.5622 21.5987 27.6679 21.3333 27.6667Z" fill="black"/>
<path d="M58.6667 4.33333C58.9322 4.33208 59.1869 4.43782 59.3734 4.62667L70.0401 15.2933C70.43 15.6838 70.43 16.3162 70.0401 16.7067L59.3734 27.3733C58.9794 27.7405 58.3654 27.7296 57.9846 27.3488C57.6038 26.968 57.5929 26.354 57.9601 25.96L67.9201 16L57.9601 6.04C57.5701 5.64958 57.5701 5.01709 57.9601 4.62667C58.1466 4.43782 58.4013 4.33208 58.6667 4.33333Z" fill="black"/>
</svg>
