<svg width="9" height="16" viewBox="0 0 9 16" fill="none" xmlns="http://www.w3.org/2000/svg">
<path d="M5.18082 3.81794C5.18082 3.98169 5.18082 4.51541 5.18082 5.27366H7.78782L7.50516 7.59763H5.18082C5.18082 11.1816 5.18082 15.9843 5.18082 15.9843H2.09563C2.09563 15.9843 2.09563 11.2452 2.09563 7.59763H0.488037V5.27366H2.09563C2.09563 4.35204 2.09563 3.69669 2.09563 3.51422C2.09563 2.64485 2.03013 2.23235 2.39954 1.55866C2.76913 0.885005 3.81163 -0.00543266 5.61472 0.0160048C7.41825 0.0382236 8.17847 0.211724 8.17847 0.211724L7.78782 2.6885C7.78782 2.6885 6.63616 2.38441 6.07088 2.49279C5.50635 2.60119 5.18082 2.94894 5.18082 3.81794Z" fill="white"/>
</svg>
