<svg width="56" height="56" viewBox="0 0 56 56" fill="none" xmlns="http://www.w3.org/2000/svg">
<rect width="56" height="56" rx="11" fill="#F6F6F6"/>
<path d="M26.79 31.17C26.59 31.17 26.4 31.09 26.26 30.95L23.84 28.53C23.55 28.24 23.55 27.76 23.84 27.47C24.13 27.18 24.61 27.18 24.9 27.47L26.79 29.36L31.09 25.06C31.38 24.77 31.86 24.77 32.15 25.06C32.44 25.35 32.44 25.83 32.15 26.12L27.32 30.95C27.18 31.09 26.99 31.17 26.79 31.17Z" fill="#797979"/>
<path d="M28 38.75C27.37 38.75 26.74 38.54 26.25 38.12L24.67 36.76C24.51 36.62 24.11 36.48 23.9 36.48H22.18C20.7 36.48 19.5 35.28 19.5 33.8V32.09C19.5 31.88 19.36 31.49 19.22 31.33L17.87 29.74C17.05 28.77 17.05 27.24 17.87 26.27L19.22 24.68C19.36 24.52 19.5 24.13 19.5 23.92V22.2C19.5 20.72 20.7 19.52 22.18 19.52H23.91C24.12 19.52 24.52 19.37 24.68 19.24L26.26 17.88C27.24 17.04 28.77 17.04 29.75 17.88L31.33 19.24C31.49 19.38 31.89 19.52 32.1 19.52H33.8C35.28 19.52 36.48 20.72 36.48 22.2V23.9C36.48 24.11 36.63 24.51 36.77 24.67L38.13 26.25C38.97 27.23 38.97 28.76 38.13 29.74L36.77 31.32C36.63 31.48 36.48 31.88 36.48 32.09V33.79C36.48 35.27 35.28 36.47 33.8 36.47H32.1C31.89 36.47 31.49 36.62 31.33 36.75L29.75 38.11C29.26 38.54 28.63 38.75 28 38.75ZM22.18 21.02C21.53 21.02 21 21.55 21 22.2V23.91C21 24.48 20.73 25.21 20.36 25.64L19.01 27.23C18.66 27.64 18.66 28.35 19.01 28.76L20.36 30.35C20.73 30.79 21 31.51 21 32.08V33.79C21 34.44 21.53 34.97 22.18 34.97H23.91C24.49 34.97 25.22 35.24 25.66 35.62L27.24 36.98C27.65 37.33 28.37 37.33 28.78 36.98L30.36 35.62C30.8 35.25 31.53 34.97 32.11 34.97H33.81C34.46 34.97 34.99 34.44 34.99 33.79V32.09C34.99 31.51 35.26 30.78 35.64 30.34L37 28.76C37.35 28.35 37.35 27.63 37 27.22L35.64 25.64C35.26 25.2 34.99 24.47 34.99 23.89V22.2C34.99 21.55 34.46 21.02 33.81 21.02H32.11C31.53 21.02 30.8 20.75 30.36 20.37L28.78 19.01C28.37 18.66 27.65 18.66 27.24 19.01L25.66 20.38C25.22 20.75 24.48 21.02 23.91 21.02H22.18Z" fill="#797979"/>
</svg>
