<svg width="24" height="24" viewBox="0 0 24 24" fill="none" xmlns="http://www.w3.org/2000/svg">
<g clip-path="url(#clip0_153_903)">
<path fill-rule="evenodd" clip-rule="evenodd" d="M6.6075 3.25032C5.76459 4.09322 5.76464 5.44979 5.76459 8.16305L5.76459 15.8371C5.76459 18.5504 5.76459 19.907 6.60754 20.7499C7.45041 21.5928 8.80699 21.5928 11.5202 21.5928L12.4795 21.5928C15.1927 21.5928 16.5493 21.5928 17.3922 20.7499C18.2351 19.907 18.2351 18.5504 18.2351 15.8372L18.2351 8.16306C18.2351 5.4498 18.2351 4.09324 17.3922 3.25032C16.5493 2.40743 15.1927 2.40743 12.4795 2.40743L11.5202 2.40743C8.807 2.40743 7.45039 2.40743 6.6075 3.25032ZM14.3977 6.03565C14.8119 6.03565 15.1477 5.69986 15.1477 5.28565C15.1477 4.87143 14.8119 4.53565 14.3977 4.53565L9.60133 4.53564C9.18712 4.53565 8.85133 4.87143 8.85133 5.28564C8.85133 5.69986 9.18712 6.03565 9.60133 6.03564L14.3977 6.03565ZM11.9993 18.7155C12.794 18.7154 13.4382 18.0712 13.4383 17.2765C13.4383 16.4819 12.794 15.8376 11.9994 15.8376C11.2046 15.8377 10.5605 16.4819 10.5604 17.2766C10.5604 18.0712 11.2046 18.7155 11.9993 18.7155Z" fill="#4E4E4E"/>
</g>
<defs>
<clipPath id="clip0_153_903">
<rect width="24" height="24" fill="white"/>
</clipPath>
</defs>
</svg>
