<svg width="56" height="56" viewBox="0 0 56 56" fill="none" xmlns="http://www.w3.org/2000/svg">
<rect width="56" height="56" rx="11" fill="#F6F6F6"/>
<path fill-rule="evenodd" clip-rule="evenodd" d="M23.4353 17.25H32.5647C33.1346 17.25 33.6186 17.25 34.0185 17.2913C34.4443 17.3353 34.8378 17.4309 35.2096 17.6607C35.5814 17.8905 35.8429 18.1997 36.0727 18.5609C36.2885 18.9001 36.5049 19.333 36.7598 19.8428L36.7763 19.8757C36.786 19.8952 36.7949 19.915 36.8029 19.9353L38.2065 23.4834C38.3735 23.9056 38.5586 24.4323 38.6127 24.9713C38.6681 25.5226 38.5921 26.1541 38.1601 26.7019C37.8068 27.15 37.3155 27.4863 36.75 27.6463V37.25H38C38.4142 37.25 38.75 37.5858 38.75 38C38.75 38.4142 38.4142 38.75 38 38.75H18C17.5858 38.75 17.25 38.4142 17.25 38C17.25 37.5858 17.5858 37.25 18 37.25H19.25V27.6464C18.6845 27.4863 18.1931 27.15 17.8397 26.7019C17.4078 26.1541 17.3318 25.5226 17.3872 24.9713C17.4413 24.4323 17.6264 23.9056 17.7934 23.4834L19.197 19.9353C19.205 19.915 19.2139 19.8952 19.2236 19.8757L19.2401 19.8428C19.495 19.333 19.7114 18.9001 19.9272 18.5609C20.157 18.1997 20.4185 17.8905 20.7903 17.6607C21.1621 17.4309 21.5556 17.3353 21.9814 17.2913C22.3813 17.25 22.8653 17.25 23.4353 17.25ZM33.9999 26.8875C34.3359 27.2433 34.7658 27.5096 35.25 27.6465V37.25H31.25V34.4678C31.25 34.028 31.25 33.6486 31.2218 33.3374C31.192 33.0082 31.1259 32.6822 30.9486 32.375C30.7511 32.033 30.467 31.7489 30.125 31.5514C29.8178 31.3741 29.4918 31.308 29.1627 31.2782C28.8514 31.25 28.472 31.25 28.0322 31.25H27.9678C27.528 31.25 27.1486 31.25 26.8373 31.2782C26.5082 31.308 26.1822 31.3741 25.875 31.5514C25.533 31.7489 25.2489 32.033 25.0514 32.375C24.8741 32.6822 24.808 33.0082 24.7782 33.3374C24.75 33.6486 24.75 34.028 24.75 34.4677V37.25H20.75V27.6465C21.2341 27.5095 21.664 27.2433 21.9999 26.8875C22.5013 27.4186 23.2119 27.75 23.9999 27.75C24.7879 27.75 25.4985 27.4186 25.9999 26.8875C26.5013 27.4186 27.2119 27.75 27.9999 27.75C28.7879 27.75 29.4985 27.4186 29.9999 26.8875C30.5013 27.4186 31.2119 27.75 31.9999 27.75C32.7879 27.75 33.4985 27.4186 33.9999 26.8875ZM26.25 37.25H29.75V34.5C29.75 34.0189 29.7493 33.7082 29.7279 33.4727C29.7075 33.2476 29.6731 33.1659 29.6495 33.125C29.5837 33.011 29.489 32.9163 29.375 32.8505C29.3341 32.8269 29.2524 32.7925 29.0273 32.7721C28.7918 32.7507 28.4811 32.75 28 32.75C27.5189 32.75 27.2082 32.7507 26.9727 32.7721C26.7476 32.7925 26.6659 32.8269 26.625 32.8505C26.511 32.9163 26.4163 33.011 26.3505 33.125C26.3269 33.1659 26.2925 33.2476 26.2721 33.4727C26.2507 33.7082 26.25 34.0189 26.25 34.5V37.25ZM22.7499 25C22.7499 25.6904 23.3096 26.25 23.9999 26.25C24.6903 26.25 25.2499 25.6904 25.2499 25C25.2499 24.5858 25.5857 24.25 25.9999 24.25C26.4141 24.25 26.7499 24.5858 26.7499 25C26.7499 25.6904 27.3096 26.25 27.9999 26.25C28.6903 26.25 29.2499 25.6904 29.2499 25C29.2499 24.5858 29.5857 24.25 29.9999 24.25C30.4141 24.25 30.7499 24.5858 30.7499 25C30.7499 25.6904 31.3096 26.25 31.9999 26.25C32.6903 26.25 33.2499 25.6904 33.2499 25C33.2499 24.5858 33.5857 24.25 33.9999 24.25C34.4141 24.25 34.7499 24.5858 34.7499 25C34.7499 25.6904 35.3096 26.25 35.9999 26.25C36.3979 26.25 36.7522 26.0649 36.9823 25.7731C37.0962 25.6286 37.1513 25.4309 37.1202 25.1211C37.0879 24.799 36.969 24.4328 36.8117 24.0352L35.4201 20.5174C35.1524 19.982 34.9735 19.6275 34.8071 19.3661C34.6472 19.1147 34.5325 19.0056 34.421 18.9367C34.3095 18.8678 34.1606 18.814 33.8642 18.7834C33.5505 18.7509 33.1446 18.75 32.5278 18.75H23.4721C22.8553 18.75 22.4494 18.7509 22.1357 18.7834C21.8393 18.814 21.6904 18.8678 21.5789 18.9367C21.4674 19.0056 21.3527 19.1147 21.1928 19.3661C21.0265 19.6275 20.8475 19.982 20.5798 20.5174L19.1882 24.0352C19.0309 24.4328 18.912 24.799 18.8797 25.1212C18.8486 25.431 18.9037 25.6286 19.0176 25.7731C19.2477 26.0649 19.602 26.25 19.9999 26.25C20.6903 26.25 21.2499 25.6904 21.2499 25C21.2499 24.5858 21.5857 24.25 21.9999 24.25C22.4141 24.25 22.7499 24.5858 22.7499 25Z" fill="#797979"/>
</svg>
